<?xml version="1.0" encoding="UTF-8" standalone="no"?>
<svg
   xmlns:dc="http://purl.org/dc/elements/1.1/"
   xmlns:cc="http://creativecommons.org/ns#"
   xmlns:rdf="http://www.w3.org/1999/02/22-rdf-syntax-ns#"
   xmlns:svg="http://www.w3.org/2000/svg"
   xmlns="http://www.w3.org/2000/svg"
   xmlns:sodipodi="http://sodipodi.sourceforge.net/DTD/sodipodi-0.dtd"
   xmlns:inkscape="http://www.inkscape.org/namespaces/inkscape"
   version="1.1"
   id="Capa_1"
   x="0px"
   y="0px"
   width="43"
   height="55"
   viewBox="0 0 42.999999 54.999998"
   xml:space="preserve"
   sodipodi:docname="building.svg"
   inkscape:version="1.0.2 (e86c8708, 2021-01-15)"><metadata
   id="metadata2177"><rdf:RDF><cc:Work
       rdf:about=""><dc:format>image/svg+xml</dc:format><dc:type
         rdf:resource="http://purl.org/dc/dcmitype/StillImage" /><dc:title></dc:title></cc:Work></rdf:RDF></metadata><defs
   id="defs2175" /><sodipodi:namedview
   pagecolor="#ffffff"
   bordercolor="#666666"
   borderopacity="1"
   objecttolerance="10"
   gridtolerance="10"
   guidetolerance="10"
   inkscape:pageopacity="0"
   inkscape:pageshadow="2"
   inkscape:window-width="1920"
   inkscape:window-height="987"
   id="namedview2173"
   showgrid="false"
   inkscape:pagecheckerboard="true"
   fit-margin-top="0"
   fit-margin-left="0"
   fit-margin-right="0"
   fit-margin-bottom="0"
   inkscape:zoom="1.121755"
   inkscape:cx="351.16166"
   inkscape:cy="290.04267"
   inkscape:window-x="0"
   inkscape:window-y="23"
   inkscape:window-maximized="1"
   inkscape:current-layer="Capa_1" />
<g
   id="g2140"
   transform="matrix(0.10696571,0,0,0.10749998,-5.8633254,0)"
   style="fill:#ffffff">
	<g
   id="g2138"
   style="fill:#ffffff">
		<path
   d="M 451.385,5.424 C 447.768,1.809 443.486,0 438.538,0 H 73.089 c -4.952,0 -9.233,1.809 -12.85,5.424 -3.615,3.617 -5.424,7.898 -5.424,12.847 v 475.082 c 0,4.952 1.809,9.233 5.424,12.851 3.621,3.617 7.902,5.424 12.85,5.424 h 365.449 c 4.948,0 9.233,-1.807 12.847,-5.424 3.61,-3.617 5.428,-7.898 5.428,-12.851 V 18.271 C 456.809,13.323 455.002,9.042 451.385,5.424 Z M 420.264,475.085 H 310.632 v -63.953 c 0,-2.478 -0.907,-4.62 -2.707,-6.427 -1.817,-1.807 -3.949,-2.711 -6.427,-2.711 h -91.367 c -2.474,0 -4.615,0.904 -6.423,2.711 -1.807,1.807 -2.712,3.949 -2.712,6.427 v 63.953 H 91.36 V 36.542 h 328.904 z"
   id="path2100"
   style="fill:#ffffff" />
		<path
   d="m 137.042,401.994 h 18.271 c 2.474,0 4.616,-0.899 6.423,-2.71 1.809,-1.813 2.714,-3.949 2.714,-6.427 v -18.274 c 0,-2.471 -0.905,-4.609 -2.714,-6.42 -1.807,-1.807 -3.949,-2.71 -6.423,-2.71 h -18.271 c -2.474,0 -4.615,0.903 -6.423,2.71 -1.809,1.811 -2.712,3.949 -2.712,6.42 v 18.274 c 0,2.478 0.903,4.613 2.712,6.427 1.809,1.807 3.949,2.71 6.423,2.71 z"
   id="path2102"
   style="fill:#ffffff" />
		<path
   d="m 137.042,328.904 h 18.271 c 2.474,0 4.616,-0.904 6.423,-2.711 1.809,-1.813 2.714,-3.949 2.714,-6.427 v -18.274 c 0,-2.471 -0.905,-4.616 -2.714,-6.42 -1.807,-1.807 -3.949,-2.71 -6.423,-2.71 h -18.271 c -2.474,0 -4.615,0.903 -6.423,2.71 -1.809,1.804 -2.712,3.949 -2.712,6.42 v 18.274 c 0,2.478 0.903,4.613 2.712,6.427 1.809,1.807 3.949,2.711 6.423,2.711 z"
   id="path2104"
   style="fill:#ffffff" />
		<path
   d="m 210.135,328.904 h 18.272 c 2.473,0 4.615,-0.904 6.423,-2.711 1.807,-1.813 2.712,-3.949 2.712,-6.427 v -18.274 c 0,-2.471 -0.909,-4.613 -2.712,-6.42 -1.809,-1.807 -3.951,-2.71 -6.423,-2.71 h -18.272 c -2.474,0 -4.615,0.903 -6.423,2.71 -1.807,1.807 -2.712,3.949 -2.712,6.42 v 18.274 c 0,2.478 0.905,4.613 2.712,6.427 1.808,1.807 3.949,2.711 6.423,2.711 z"
   id="path2106"
   style="fill:#ffffff" />
		<path
   d="m 137.042,255.813 h 18.271 c 2.474,0 4.616,-0.903 6.423,-2.712 1.809,-1.809 2.714,-3.949 2.714,-6.424 v -18.271 c 0,-2.475 -0.905,-4.617 -2.714,-6.424 -1.807,-1.809 -3.949,-2.712 -6.423,-2.712 h -18.271 c -2.474,0 -4.615,0.903 -6.423,2.712 -1.809,1.807 -2.712,3.949 -2.712,6.424 v 18.271 c 0,2.475 0.903,4.615 2.712,6.424 1.809,1.809 3.949,2.712 6.423,2.712 z"
   id="path2108"
   style="fill:#ffffff" />
		<path
   d="m 356.311,401.994 h 18.274 c 2.478,0 4.616,-0.899 6.427,-2.71 1.811,-1.813 2.707,-3.949 2.707,-6.427 v -18.274 c 0,-2.471 -0.903,-4.609 -2.707,-6.42 -1.811,-1.807 -3.949,-2.71 -6.427,-2.71 h -18.274 c -2.471,0 -4.613,0.903 -6.42,2.71 -1.811,1.811 -2.711,3.949 -2.711,6.42 v 18.274 c 0,2.478 0.9,4.613 2.711,6.427 1.803,1.807 3.949,2.71 6.42,2.71 z"
   id="path2110"
   style="fill:#ffffff" />
		<path
   d="m 283.224,328.904 h 18.274 c 2.478,0 4.613,-0.904 6.427,-2.711 1.8,-1.813 2.703,-3.949 2.703,-6.427 v -18.274 c 0,-2.471 -0.903,-4.613 -2.703,-6.42 -1.813,-1.807 -3.949,-2.71 -6.427,-2.71 h -18.274 c -2.471,0 -4.62,0.903 -6.427,2.71 -1.801,1.807 -2.711,3.949 -2.711,6.42 v 18.274 c 0,2.478 0.907,4.613 2.711,6.427 1.813,1.807 3.956,2.711 6.427,2.711 z"
   id="path2112"
   style="fill:#ffffff" />
		<path
   d="m 210.135,255.813 h 18.272 c 2.473,0 4.615,-0.903 6.423,-2.712 1.807,-1.809 2.712,-3.949 2.712,-6.424 v -18.271 c 0,-2.475 -0.909,-4.613 -2.712,-6.424 -1.809,-1.809 -3.951,-2.712 -6.423,-2.712 h -18.272 c -2.474,0 -4.615,0.903 -6.423,2.712 -1.807,1.807 -2.712,3.949 -2.712,6.424 v 18.271 c 0,2.475 0.905,4.615 2.712,6.424 1.808,1.809 3.949,2.712 6.423,2.712 z"
   id="path2114"
   style="fill:#ffffff" />
		<path
   d="m 137.042,182.725 h 18.271 c 2.474,0 4.616,-0.905 6.423,-2.712 1.809,-1.809 2.714,-3.946 2.714,-6.423 v -18.271 c 0,-2.474 -0.905,-4.62 -2.714,-6.423 -1.807,-1.809 -3.949,-2.714 -6.423,-2.714 h -18.271 c -2.474,0 -4.615,0.905 -6.423,2.714 -1.809,1.807 -2.712,3.949 -2.712,6.423 v 18.271 c 0,2.474 0.903,4.615 2.712,6.423 1.809,1.806 3.949,2.712 6.423,2.712 z"
   id="path2116"
   style="fill:#ffffff" />
		<path
   d="m 356.311,328.904 h 18.274 c 2.478,0 4.616,-0.904 6.427,-2.711 1.811,-1.813 2.707,-3.949 2.707,-6.427 v -18.274 c 0,-2.471 -0.903,-4.613 -2.707,-6.42 -1.811,-1.807 -3.949,-2.71 -6.427,-2.71 h -18.274 c -2.471,0 -4.613,0.903 -6.42,2.71 -1.811,1.804 -2.711,3.949 -2.711,6.42 v 18.274 c 0,2.478 0.9,4.613 2.711,6.427 1.803,1.807 3.949,2.711 6.42,2.711 z"
   id="path2118"
   style="fill:#ffffff" />
		<path
   d="m 283.224,255.813 h 18.274 c 2.478,0 4.613,-0.903 6.427,-2.712 1.8,-1.809 2.703,-3.949 2.703,-6.424 v -18.271 c 0,-2.475 -0.903,-4.613 -2.703,-6.424 -1.813,-1.809 -3.949,-2.712 -6.427,-2.712 h -18.274 c -2.471,0 -4.62,0.903 -6.427,2.712 -1.801,1.807 -2.711,3.949 -2.711,6.424 v 18.271 c 0,2.475 0.907,4.615 2.711,6.424 1.813,1.809 3.956,2.712 6.427,2.712 z"
   id="path2120"
   style="fill:#ffffff" />
		<path
   d="m 210.135,182.725 h 18.272 c 2.473,0 4.615,-0.905 6.423,-2.712 1.807,-1.809 2.712,-3.946 2.712,-6.423 v -18.271 c 0,-2.474 -0.909,-4.62 -2.712,-6.423 -1.809,-1.809 -3.951,-2.714 -6.423,-2.714 h -18.272 c -2.474,0 -4.615,0.905 -6.423,2.714 -1.807,1.807 -2.712,3.949 -2.712,6.423 v 18.271 c 0,2.474 0.905,4.615 2.712,6.423 1.808,1.806 3.949,2.712 6.423,2.712 z"
   id="path2122"
   style="fill:#ffffff" />
		<path
   d="m 137.042,109.632 h 18.271 c 2.474,0 4.616,-0.905 6.423,-2.713 1.809,-1.807 2.714,-3.949 2.714,-6.424 v -18.27 c 0,-2.475 -0.905,-4.615 -2.714,-6.424 -1.807,-1.807 -3.949,-2.712 -6.423,-2.712 h -18.271 c -2.474,0 -4.615,0.905 -6.423,2.712 -1.809,1.809 -2.712,3.949 -2.712,6.424 v 18.271 c 0,2.475 0.903,4.617 2.712,6.424 1.809,1.808 3.949,2.712 6.423,2.712 z"
   id="path2124"
   style="fill:#ffffff" />
		<path
   d="m 356.311,255.813 h 18.274 c 2.478,0 4.616,-0.903 6.427,-2.712 1.811,-1.809 2.707,-3.949 2.707,-6.424 v -18.271 c 0,-2.475 -0.903,-4.613 -2.707,-6.424 -1.811,-1.809 -3.949,-2.712 -6.427,-2.712 h -18.274 c -2.471,0 -4.613,0.903 -6.42,2.712 -1.811,1.807 -2.711,3.949 -2.711,6.424 v 18.271 c 0,2.475 0.9,4.615 2.711,6.424 1.803,1.809 3.949,2.712 6.42,2.712 z"
   id="path2126"
   style="fill:#ffffff" />
		<path
   d="m 283.224,182.725 h 18.274 c 2.478,0 4.613,-0.905 6.427,-2.712 1.8,-1.809 2.703,-3.946 2.703,-6.423 v -18.271 c 0,-2.474 -0.903,-4.62 -2.703,-6.423 -1.813,-1.809 -3.949,-2.714 -6.427,-2.714 h -18.274 c -2.471,0 -4.613,0.905 -6.427,2.714 -1.801,1.807 -2.711,3.949 -2.711,6.423 v 18.271 c 0,2.474 0.907,4.615 2.711,6.423 1.813,1.806 3.956,2.712 6.427,2.712 z"
   id="path2128"
   style="fill:#ffffff" />
		<path
   d="m 210.135,109.632 h 18.272 c 2.473,0 4.615,-0.905 6.423,-2.713 1.807,-1.807 2.712,-3.949 2.712,-6.424 v -18.27 c 0,-2.475 -0.909,-4.615 -2.712,-6.424 -1.809,-1.807 -3.951,-2.712 -6.423,-2.712 h -18.272 c -2.474,0 -4.615,0.905 -6.423,2.712 C 201.905,77.61 201,79.75 201,82.225 v 18.271 c 0,2.475 0.905,4.617 2.712,6.424 1.808,1.808 3.949,2.712 6.423,2.712 z"
   id="path2130"
   style="fill:#ffffff" />
		<path
   d="m 356.311,182.725 h 18.274 c 2.478,0 4.616,-0.905 6.427,-2.712 1.811,-1.809 2.707,-3.946 2.707,-6.423 v -18.271 c 0,-2.474 -0.903,-4.62 -2.707,-6.423 -1.811,-1.809 -3.949,-2.714 -6.427,-2.714 h -18.274 c -2.471,0 -4.613,0.905 -6.42,2.714 -1.811,1.807 -2.711,3.949 -2.711,6.423 v 18.271 c 0,2.474 0.9,4.615 2.711,6.423 1.803,1.806 3.949,2.712 6.42,2.712 z"
   id="path2132"
   style="fill:#ffffff" />
		<path
   d="m 283.224,109.632 h 18.274 c 2.478,0 4.613,-0.905 6.427,-2.713 1.8,-1.807 2.703,-3.949 2.703,-6.424 v -18.27 c 0,-2.475 -0.903,-4.615 -2.703,-6.424 -1.813,-1.807 -3.949,-2.712 -6.427,-2.712 h -18.274 c -2.471,0 -4.62,0.905 -6.427,2.712 -1.801,1.809 -2.711,3.949 -2.711,6.424 v 18.271 c 0,2.475 0.907,4.617 2.711,6.424 1.813,1.808 3.956,2.712 6.427,2.712 z"
   id="path2134"
   style="fill:#ffffff" />
		<path
   d="m 356.311,109.632 h 18.274 c 2.478,0 4.616,-0.905 6.427,-2.713 1.811,-1.807 2.707,-3.949 2.707,-6.424 v -18.27 c 0,-2.475 -0.903,-4.615 -2.707,-6.424 -1.811,-1.807 -3.949,-2.712 -6.427,-2.712 h -18.274 c -2.471,0 -4.613,0.905 -6.42,2.712 -1.811,1.809 -2.711,3.949 -2.711,6.424 v 18.271 c 0,2.475 0.9,4.617 2.711,6.424 1.803,1.808 3.949,2.712 6.42,2.712 z"
   id="path2136"
   style="fill:#ffffff" />
	</g>
</g>
<g
   id="g2142"
   transform="translate(-54.815)">
</g>
<g
   id="g2144"
   transform="translate(-54.815)">
</g>
<g
   id="g2146"
   transform="translate(-54.815)">
</g>
<g
   id="g2148"
   transform="translate(-54.815)">
</g>
<g
   id="g2150"
   transform="translate(-54.815)">
</g>
<g
   id="g2152"
   transform="translate(-54.815)">
</g>
<g
   id="g2154"
   transform="translate(-54.815)">
</g>
<g
   id="g2156"
   transform="translate(-54.815)">
</g>
<g
   id="g2158"
   transform="translate(-54.815)">
</g>
<g
   id="g2160"
   transform="translate(-54.815)">
</g>
<g
   id="g2162"
   transform="translate(-54.815)">
</g>
<g
   id="g2164"
   transform="translate(-54.815)">
</g>
<g
   id="g2166"
   transform="translate(-54.815)">
</g>
<g
   id="g2168"
   transform="translate(-54.815)">
</g>
<g
   id="g2170"
   transform="translate(-54.815)">
</g>
</svg>
