<?xml version="1.0" encoding="UTF-8" standalone="no"?>
<svg
   xmlns:dc="http://purl.org/dc/elements/1.1/"
   xmlns:cc="http://creativecommons.org/ns#"
   xmlns:rdf="http://www.w3.org/1999/02/22-rdf-syntax-ns#"
   xmlns:svg="http://www.w3.org/2000/svg"
   xmlns="http://www.w3.org/2000/svg"
   xmlns:sodipodi="http://sodipodi.sourceforge.net/DTD/sodipodi-0.dtd"
   xmlns:inkscape="http://www.inkscape.org/namespaces/inkscape"
   version="1.1"
   id="Capa_1"
   x="0px"
   y="0px"
   width="14.000001"
   height="14.000002"
   viewBox="0 0 14.000001 14.000002"
   xml:space="preserve"
   sodipodi:docname="calendar.svg"
   inkscape:version="1.0.2 (e86c8708, 2021-01-15)"><metadata
   id="metadata925"><rdf:RDF><cc:Work
       rdf:about=""><dc:format>image/svg+xml</dc:format><dc:type
         rdf:resource="http://purl.org/dc/dcmitype/StillImage" /><dc:title></dc:title></cc:Work></rdf:RDF></metadata><defs
   id="defs923" /><sodipodi:namedview
   pagecolor="#ffffff"
   bordercolor="#666666"
   borderopacity="1"
   objecttolerance="10"
   gridtolerance="10"
   guidetolerance="10"
   inkscape:pageopacity="0"
   inkscape:pageshadow="2"
   inkscape:window-width="1920"
   inkscape:window-height="987"
   id="namedview921"
   showgrid="false"
   fit-margin-top="0"
   fit-margin-left="0"
   fit-margin-right="0"
   fit-margin-bottom="0"
   inkscape:pagecheckerboard="true"
   inkscape:zoom="1.1773093"
   inkscape:cx="337.87557"
   inkscape:cy="238.89055"
   inkscape:window-x="0"
   inkscape:window-y="23"
   inkscape:window-maximized="1"
   inkscape:current-layer="Capa_1" />
<g
   id="g888"
   transform="matrix(0.0294686,0,0,0.02736326,-0.53856813,0)"
   style="fill:#ffffff">
	<path
   d="m 482.513,83.942 c -7.225,-7.233 -15.797,-10.85 -25.694,-10.85 h -36.541 v -27.41 c 0,-12.56 -4.477,-23.315 -13.422,-32.261 C 397.906,4.475 387.157,0 374.591,0 h -18.268 c -12.565,0 -23.318,4.475 -32.264,13.422 -8.949,8.945 -13.422,19.701 -13.422,32.261 v 27.41 h -109.63 v -27.41 c 0,-12.56 -4.475,-23.315 -13.422,-32.261 C 178.64,4.475 167.886,0 155.321,0 H 137.05 C 124.488,0 113.733,4.475 104.786,13.422 95.841,22.367 91.365,33.123 91.365,45.683 v 27.41 H 54.823 c -9.9,0 -18.464,3.617 -25.697,10.85 -7.233,7.232 -10.85,15.8 -10.85,25.697 v 365.453 c 0,9.89 3.617,18.456 10.85,25.693 7.232,7.231 15.796,10.849 25.697,10.849 h 401.989 c 9.897,0 18.47,-3.617 25.694,-10.849 7.234,-7.234 10.852,-15.804 10.852,-25.693 V 109.639 c -10e-4,-9.9 -3.615,-18.464 -10.845,-25.697 z M 137.047,475.088 H 54.823 v -82.23 h 82.224 z m 0,-100.498 H 54.823 v -91.358 h 82.224 z m 0,-109.639 H 54.823 v -82.223 h 82.224 z m -6.42,-130.618 c -1.809,-1.809 -2.712,-3.946 -2.712,-6.423 V 45.686 c 0,-2.474 0.903,-4.617 2.712,-6.423 1.809,-1.809 3.946,-2.712 6.423,-2.712 h 18.271 c 2.474,0 4.617,0.903 6.423,2.712 1.809,1.807 2.714,3.949 2.714,6.423 v 82.224 c 0,2.478 -0.909,4.615 -2.714,6.423 -1.807,1.809 -3.946,2.712 -6.423,2.712 H 137.05 c -2.474,0.001 -4.614,-0.903 -6.423,-2.712 z m 116.056,340.755 h -91.365 v -82.23 h 91.365 z m 0,-100.498 h -91.365 v -91.358 h 91.365 z m 0,-109.639 h -91.365 v -82.223 h 91.365 z m 109.64,210.137 h -91.364 v -82.23 h 91.364 z m 0,-100.498 h -91.364 v -91.358 h 91.364 z m 0,-109.639 h -91.364 v -82.223 h 91.364 z m -6.427,-130.618 c -1.807,-1.809 -2.707,-3.946 -2.707,-6.423 V 45.686 c 0,-2.474 0.9,-4.617 2.707,-6.423 1.808,-1.809 3.949,-2.712 6.427,-2.712 h 18.268 c 2.478,0 4.617,0.903 6.427,2.712 1.808,1.807 2.707,3.949 2.707,6.423 v 82.224 c 0,2.478 -0.903,4.615 -2.707,6.423 -1.807,1.809 -3.949,2.712 -6.427,2.712 h -18.268 c -2.477,0.001 -4.626,-0.903 -6.427,-2.712 z m 106.916,340.755 h -82.228 v -82.23 h 82.228 z m 0,-100.498 h -82.228 v -91.358 h 82.228 z m 0,-109.639 h -82.228 v -82.223 h 82.228 z"
   id="path886"
   style="fill:#ffffff" />
</g>
<g
   id="g890"
   transform="translate(-18.276)">
</g>
<g
   id="g892"
   transform="translate(-18.276)">
</g>
<g
   id="g894"
   transform="translate(-18.276)">
</g>
<g
   id="g896"
   transform="translate(-18.276)">
</g>
<g
   id="g898"
   transform="translate(-18.276)">
</g>
<g
   id="g900"
   transform="translate(-18.276)">
</g>
<g
   id="g902"
   transform="translate(-18.276)">
</g>
<g
   id="g904"
   transform="translate(-18.276)">
</g>
<g
   id="g906"
   transform="translate(-18.276)">
</g>
<g
   id="g908"
   transform="translate(-18.276)">
</g>
<g
   id="g910"
   transform="translate(-18.276)">
</g>
<g
   id="g912"
   transform="translate(-18.276)">
</g>
<g
   id="g914"
   transform="translate(-18.276)">
</g>
<g
   id="g916"
   transform="translate(-18.276)">
</g>
<g
   id="g918"
   transform="translate(-18.276)">
</g>
</svg>
