<?xml version="1.0" encoding="UTF-8" standalone="no"?>
<svg
   xmlns:dc="http://purl.org/dc/elements/1.1/"
   xmlns:cc="http://creativecommons.org/ns#"
   xmlns:rdf="http://www.w3.org/1999/02/22-rdf-syntax-ns#"
   xmlns:svg="http://www.w3.org/2000/svg"
   xmlns="http://www.w3.org/2000/svg"
   xmlns:sodipodi="http://sodipodi.sourceforge.net/DTD/sodipodi-0.dtd"
   xmlns:inkscape="http://www.inkscape.org/namespaces/inkscape"
   version="1.1"
   id="Capa_1"
   x="0px"
   y="0px"
   width="14.000001"
   height="13.999999"
   viewBox="0 0 14.000001 13.999999"
   xml:space="preserve"
   sodipodi:docname="population.svg"
   inkscape:version="1.0.2 (e86c8708, 2021-01-15)"><metadata
   id="metadata884"><rdf:RDF><cc:Work
       rdf:about=""><dc:format>image/svg+xml</dc:format><dc:type
         rdf:resource="http://purl.org/dc/dcmitype/StillImage" /><dc:title></dc:title></cc:Work></rdf:RDF></metadata><defs
   id="defs882" /><sodipodi:namedview
   pagecolor="#ffffff"
   bordercolor="#666666"
   borderopacity="1"
   objecttolerance="10"
   gridtolerance="10"
   guidetolerance="10"
   inkscape:pageopacity="0"
   inkscape:pageshadow="2"
   inkscape:window-width="1920"
   inkscape:window-height="987"
   id="namedview880"
   showgrid="false"
   inkscape:zoom="4.1041045"
   inkscape:cx="43.36707"
   inkscape:cy="-22.973465"
   inkscape:window-x="1"
   inkscape:window-y="23"
   inkscape:window-maximized="0"
   inkscape:current-layer="Capa_1"
   fit-margin-top="0"
   fit-margin-left="0"
   fit-margin-right="0"
   fit-margin-bottom="0"
   inkscape:pagecheckerboard="true" />
<g
   id="g847"
   transform="matrix(0.02553957,0,0,0.02736363,0,-0.49996088)"
   style="fill:#ffffff">
	<g
   id="g845"
   style="fill:#ffffff">
		<path
   d="m 109.634,164.452 c 20.179,0 37.402,-7.135 51.674,-21.411 14.277,-14.275 21.416,-31.503 21.416,-51.678 0,-20.173 -7.139,-37.401 -21.416,-51.678 C 147.036,25.41 129.812,18.271 109.634,18.271 89.457,18.271 72.233,25.41 57.958,39.685 43.684,53.962 36.545,71.186 36.545,91.363 c 0,20.179 7.139,37.403 21.413,51.678 14.275,14.272 31.499,21.411 51.676,21.411 z"
   id="path833"
   style="fill:#ffffff" />
		<path
   d="m 196.569,278.519 c 21.413,21.406 47.248,32.114 77.516,32.114 30.269,0 56.103,-10.708 77.515,-32.114 21.409,-21.42 32.117,-47.258 32.117,-77.52 0,-30.264 -10.708,-56.101 -32.117,-77.515 -21.412,-21.414 -47.246,-32.121 -77.515,-32.121 -30.268,0 -56.105,10.709 -77.516,32.121 -21.411,21.411 -32.12,47.248 -32.12,77.515 0,30.267 10.709,56.103 32.12,77.52 z"
   id="path835"
   style="fill:#ffffff" />
		<path
   d="m 438.543,164.452 c 20.17,0 37.397,-7.135 51.671,-21.411 14.274,-14.275 21.409,-31.503 21.409,-51.678 0,-20.173 -7.135,-37.401 -21.409,-51.678 -14.273,-14.275 -31.501,-21.414 -51.671,-21.414 -20.184,0 -37.407,7.139 -51.682,21.414 -14.271,14.277 -21.409,31.501 -21.409,51.678 0,20.179 7.139,37.403 21.409,51.678 14.275,14.272 31.498,21.411 51.682,21.411 z"
   id="path837"
   style="fill:#ffffff" />
		<path
   d="m 512.763,164.456 c -1.136,0 -5.276,1.999 -12.415,5.996 -7.132,3.999 -16.416,8.044 -27.833,12.137 -11.416,4.089 -22.747,6.136 -33.972,6.136 -12.758,0 -25.406,-2.187 -37.973,-6.567 0.945,7.039 1.424,13.322 1.424,18.842 0,26.457 -7.71,50.819 -23.134,73.089 30.841,0.955 56.056,13.134 75.668,36.552 h 38.256 c 15.605,0 28.739,-3.863 39.396,-11.57 10.657,-7.703 15.989,-18.986 15.989,-33.83 0.003,-67.194 -11.793,-100.789 -35.406,-100.785 z"
   id="path839"
   style="fill:#ffffff" />
		<path
   d="m 470.096,395.284 c -1.999,-11.136 -4.524,-21.464 -7.57,-30.978 -3.046,-9.521 -7.139,-18.794 -12.271,-27.836 -5.141,-9.034 -11.044,-16.748 -17.706,-23.127 -6.667,-6.379 -14.805,-11.464 -24.414,-15.276 -9.609,-3.806 -20.225,-5.708 -31.833,-5.708 -1.906,0 -5.996,2.047 -12.278,6.14 -6.283,4.089 -13.224,8.665 -20.841,13.702 -7.615,5.037 -17.789,9.609 -30.55,13.702 -12.762,4.093 -25.608,6.14 -38.544,6.14 -12.941,0 -25.791,-2.047 -38.544,-6.14 -12.756,-4.093 -22.936,-8.665 -30.55,-13.702 -7.616,-5.037 -14.561,-9.613 -20.841,-13.702 -6.283,-4.093 -10.373,-6.14 -12.279,-6.14 -11.609,0 -22.22,1.902 -31.833,5.708 -9.613,3.812 -17.749,8.897 -24.41,15.276 -6.667,6.372 -12.562,14.093 -17.705,23.127 -5.137,9.042 -9.229,18.315 -12.275,27.836 -3.045,9.514 -5.564,19.842 -7.566,30.978 -2,11.136 -3.331,21.505 -3.997,31.121 -0.667,9.613 -0.999,19.466 -0.999,29.554 0,22.836 6.945,40.874 20.839,54.098 13.899,13.223 32.363,19.842 55.389,19.842 h 249.535 c 23.028,0 41.49,-6.619 55.392,-19.842 13.894,-13.224 20.841,-31.262 20.841,-54.098 0,-10.088 -0.335,-19.938 -0.992,-29.554 -0.676,-9.616 -2.007,-19.986 -3.998,-31.121 z"
   id="path841"
   style="fill:#ffffff" />
		<path
   d="m 169.303,274.088 c -15.418,-22.27 -23.125,-46.632 -23.122,-73.089 0,-5.52 0.477,-11.799 1.427,-18.842 -12.564,4.377 -25.221,6.567 -37.974,6.567 -11.23,0 -22.552,-2.046 -33.974,-6.136 C 64.243,178.495 54.961,174.45 47.826,170.451 40.688,166.454 36.545,164.455 35.404,164.455 11.801,164.456 0,198.051 0,265.24 c 0,14.844 5.33,26.127 15.987,33.83 10.66,7.707 23.794,11.563 39.397,11.563 h 38.26 c 19.607,-23.411 44.823,-35.591 75.659,-36.545 z"
   id="path843"
   style="fill:#ffffff" />
	</g>
</g>
<g
   id="g849"
   transform="translate(0,-18.271)">
</g>
<g
   id="g851"
   transform="translate(0,-18.271)">
</g>
<g
   id="g853"
   transform="translate(0,-18.271)">
</g>
<g
   id="g855"
   transform="translate(0,-18.271)">
</g>
<g
   id="g857"
   transform="translate(0,-18.271)">
</g>
<g
   id="g859"
   transform="translate(0,-18.271)">
</g>
<g
   id="g861"
   transform="translate(0,-18.271)">
</g>
<g
   id="g863"
   transform="translate(0,-18.271)">
</g>
<g
   id="g865"
   transform="translate(0,-18.271)">
</g>
<g
   id="g867"
   transform="translate(0,-18.271)">
</g>
<g
   id="g869"
   transform="translate(0,-18.271)">
</g>
<g
   id="g871"
   transform="translate(0,-18.271)">
</g>
<g
   id="g873"
   transform="translate(0,-18.271)">
</g>
<g
   id="g875"
   transform="translate(0,-18.271)">
</g>
<g
   id="g877"
   transform="translate(0,-18.271)">
</g>
</svg>
