<?xml version="1.0" encoding="UTF-8" standalone="no"?>
<svg
   xmlns:dc="http://purl.org/dc/elements/1.1/"
   xmlns:cc="http://creativecommons.org/ns#"
   xmlns:rdf="http://www.w3.org/1999/02/22-rdf-syntax-ns#"
   xmlns:svg="http://www.w3.org/2000/svg"
   xmlns="http://www.w3.org/2000/svg"
   xmlns:sodipodi="http://sodipodi.sourceforge.net/DTD/sodipodi-0.dtd"
   xmlns:inkscape="http://www.inkscape.org/namespaces/inkscape"
   version="1.1"
   id="Capa_1"
   x="0px"
   y="0px"
   width="9.9999981"
   height="10.000001"
   viewBox="0 0 9.9999981 10.000001"
   xml:space="preserve"
   sodipodi:docname="arrow-up.svg"
   inkscape:version="1.0.2 (e86c8708, 2021-01-15)"><metadata
   id="metadata913"><rdf:RDF><cc:Work
       rdf:about=""><dc:format>image/svg+xml</dc:format><dc:type
         rdf:resource="http://purl.org/dc/dcmitype/StillImage" /><dc:title></dc:title></cc:Work></rdf:RDF></metadata><defs
   id="defs911" /><sodipodi:namedview
   pagecolor="#000000"
   bordercolor="#666666"
   borderopacity="1"
   objecttolerance="10"
   gridtolerance="10"
   guidetolerance="10"
   inkscape:pageopacity="0"
   inkscape:pageshadow="2"
   inkscape:window-width="1920"
   inkscape:window-height="987"
   id="namedview909"
   showgrid="false"
   fit-margin-top="0"
   fit-margin-left="0"
   fit-margin-right="0"
   fit-margin-bottom="0"
   inkscape:pagecheckerboard="true"
   inkscape:zoom="1.8951529"
   inkscape:cx="222.4095"
   inkscape:cy="210.1305"
   inkscape:window-x="0"
   inkscape:window-y="23"
   inkscape:window-maximized="1"
   inkscape:current-layer="Capa_1" />
<g
   id="g876"
   style="fill:#ffffff"
   transform="matrix(0.0224811,0,0,0.02379474,0,-0.29217561)">
	<path
   d="M 434.252,208.708 248.387,22.843 C 241.345,15.8 232.694,12.279 222.41,12.279 c -10.467,0 -19.036,3.521 -25.697,10.564 L 10.848,208.708 C 3.615,215.94 0,224.604 0,234.692 c 0,9.897 3.619,18.459 10.848,25.693 l 21.411,21.409 c 6.854,7.231 15.42,10.855 25.697,10.855 10.278,0 18.842,-3.624 25.697,-10.855 l 83.939,-83.651 v 200.998 c 0,9.89 3.567,17.936 10.706,24.126 7.139,6.184 15.752,9.273 25.837,9.273 h 36.545 c 10.089,0 18.698,-3.09 25.837,-9.273 7.139,-6.188 10.712,-14.236 10.712,-24.126 V 198.144 l 83.938,83.651 c 6.848,7.231 15.413,10.855 25.7,10.855 10.082,0 18.747,-3.624 25.975,-10.855 l 21.409,-21.409 c 7.043,-7.426 10.567,-15.988 10.567,-25.693 0.001,-9.898 -3.523,-18.559 -10.566,-25.985 z"
   id="path874"
   style="fill:#ffffff" />
</g>
<g
   id="g878"
   transform="translate(0,-12.279)">
</g>
<g
   id="g880"
   transform="translate(0,-12.279)">
</g>
<g
   id="g882"
   transform="translate(0,-12.279)">
</g>
<g
   id="g884"
   transform="translate(0,-12.279)">
</g>
<g
   id="g886"
   transform="translate(0,-12.279)">
</g>
<g
   id="g888"
   transform="translate(0,-12.279)">
</g>
<g
   id="g890"
   transform="translate(0,-12.279)">
</g>
<g
   id="g892"
   transform="translate(0,-12.279)">
</g>
<g
   id="g894"
   transform="translate(0,-12.279)">
</g>
<g
   id="g896"
   transform="translate(0,-12.279)">
</g>
<g
   id="g898"
   transform="translate(0,-12.279)">
</g>
<g
   id="g900"
   transform="translate(0,-12.279)">
</g>
<g
   id="g902"
   transform="translate(0,-12.279)">
</g>
<g
   id="g904"
   transform="translate(0,-12.279)">
</g>
<g
   id="g906"
   transform="translate(0,-12.279)">
</g>
</svg>
