<?xml version="1.0" encoding="UTF-8" standalone="no"?>
<svg
   xmlns:dc="http://purl.org/dc/elements/1.1/"
   xmlns:cc="http://creativecommons.org/ns#"
   xmlns:rdf="http://www.w3.org/1999/02/22-rdf-syntax-ns#"
   xmlns:svg="http://www.w3.org/2000/svg"
   xmlns="http://www.w3.org/2000/svg"
   xmlns:sodipodi="http://sodipodi.sourceforge.net/DTD/sodipodi-0.dtd"
   xmlns:inkscape="http://www.inkscape.org/namespaces/inkscape"
   viewBox="0 0 14 14"
   version="1.1"
   id="svg835"
   sodipodi:docname="coins.svg"
   width="14"
   height="14"
   inkscape:version="1.0.2 (e86c8708, 2021-01-15)">
  <metadata
     id="metadata841">
    <rdf:RDF>
      <cc:Work
         rdf:about="">
        <dc:format>image/svg+xml</dc:format>
        <dc:type
           rdf:resource="http://purl.org/dc/dcmitype/StillImage" />
        <dc:title></dc:title>
      </cc:Work>
    </rdf:RDF>
  </metadata>
  <defs
     id="defs839" />
  <sodipodi:namedview
     pagecolor="#000000"
     bordercolor="#666666"
     borderopacity="1"
     objecttolerance="10"
     gridtolerance="10"
     guidetolerance="10"
     inkscape:pageopacity="0"
     inkscape:pageshadow="2"
     inkscape:window-width="1252"
     inkscape:window-height="987"
     id="namedview837"
     showgrid="false"
     inkscape:pagecheckerboard="true"
     fit-margin-top="0"
     fit-margin-left="0"
     fit-margin-right="0"
     fit-margin-bottom="0"
     inkscape:zoom="1.3046875"
     inkscape:cx="256"
     inkscape:cy="256"
     inkscape:window-x="0"
     inkscape:window-y="23"
     inkscape:window-maximized="0"
     inkscape:current-layer="svg835" />
  <!-- Font Awesome Free 5.15.3 by @fontawesome - https://fontawesome.com License - https://fontawesome.com/license/free (Icons: CC BY 4.0, Fonts: SIL OFL 1.1, Code: MIT License) -->
  <path
     d="M 0,11.082422 V 12.25 C 0,13.215234 2.3515625,14 5.25,14 8.1484375,14 10.5,13.215234 10.5,12.25 V 11.082422 C 9.3707031,11.878125 7.30625,12.25 5.25,12.25 3.19375,12.25 1.1292969,11.878125 0,11.082422 Z M 8.75,3.5 C 11.648438,3.5 14,2.7152344 14,1.75 14,0.78476562 11.648438,0 8.75,0 5.8515625,0 3.5,0.78476562 3.5,1.75 3.5,2.7152344 5.8515625,3.5 8.75,3.5 Z M 0,8.2140625 V 9.625 c 0,0.965234 2.3515625,1.75 5.25,1.75 2.8984375,0 5.25,-0.784766 5.25,-1.75 V 8.2140625 C 9.3707031,9.14375 7.3035156,9.625 5.25,9.625 3.1964844,9.625 1.1292969,9.14375 0,8.2140625 Z M 11.375,8.5148437 C 12.941797,8.2113281 14,7.6480469 14,7 V 5.8324219 C 13.365625,6.2808594 12.433203,6.5871094 11.375,6.7757813 Z M 5.25,4.375 C 2.3515625,4.375 0,5.3539063 0,6.5625 0,7.7710937 2.3515625,8.75 5.25,8.75 8.1484375,8.75 10.5,7.7710937 10.5,6.5625 10.5,5.3539063 8.1484375,4.375 5.25,4.375 Z m 5.996484,1.5394531 C 12.887109,5.6191406 14,5.0394531 14,4.375 V 3.2074219 C 13.029297,3.89375 11.361328,4.2628906 9.6058594,4.3503906 10.4125,4.7414062 11.005859,5.2664062 11.246484,5.9144531 Z"
     id="path833"
     style="fill:#ffffff;stroke-width:0.0273437" />
</svg>
