<?xml version="1.0" encoding="UTF-8" standalone="no"?>
<svg
   xmlns:dc="http://purl.org/dc/elements/1.1/"
   xmlns:cc="http://creativecommons.org/ns#"
   xmlns:rdf="http://www.w3.org/1999/02/22-rdf-syntax-ns#"
   xmlns:svg="http://www.w3.org/2000/svg"
   xmlns="http://www.w3.org/2000/svg"
   xmlns:sodipodi="http://sodipodi.sourceforge.net/DTD/sodipodi-0.dtd"
   xmlns:inkscape="http://www.inkscape.org/namespaces/inkscape"
   viewBox="0 0 30 20"
   version="1.1"
   id="svg855"
   sodipodi:docname="envelope.svg"
   width="30"
   height="20"
   inkscape:version="1.0.2 (e86c8708, 2021-01-15)">
  <metadata
     id="metadata861">
    <rdf:RDF>
      <cc:Work
         rdf:about="">
        <dc:format>image/svg+xml</dc:format>
        <dc:type
           rdf:resource="http://purl.org/dc/dcmitype/StillImage" />
        <dc:title></dc:title>
      </cc:Work>
    </rdf:RDF>
  </metadata>
  <defs
     id="defs859" />
  <sodipodi:namedview
     pagecolor="#000000"
     bordercolor="#666666"
     borderopacity="1"
     objecttolerance="10"
     gridtolerance="10"
     guidetolerance="10"
     inkscape:pageopacity="0"
     inkscape:pageshadow="2"
     inkscape:window-width="1535"
     inkscape:window-height="613"
     id="namedview857"
     showgrid="false"
     fit-margin-top="0"
     fit-margin-left="0"
     fit-margin-right="0"
     fit-margin-bottom="0"
     inkscape:pagecheckerboard="true"
     inkscape:zoom="0.57708094"
     inkscape:cx="254.38862"
     inkscape:cy="81.634681"
     inkscape:window-x="347"
     inkscape:window-y="185"
     inkscape:window-maximized="0"
     inkscape:current-layer="svg855" />
  <!-- Font Awesome Free 5.15.3 by @fontawesome - https://fontawesome.com License - https://fontawesome.com/license/free (Icons: CC BY 4.0, Fonts: SIL OFL 1.1, Code: MIT License) -->
  <path
     d="M 29.43164,6.6041667 C 29.660156,6.442708 30,6.5937498 30,6.8489582 V 17.5 C 30,18.880208 28.740235,20 27.1875,20 H 2.8125 C 1.2597656,20 0,18.880208 0,17.5 V 6.8541667 C 0,6.5937498 0.33398439,6.4479169 0.56835936,6.6093751 1.8808594,7.5156249 3.6210939,8.6666667 9.5976564,12.526042 10.833985,13.328125 12.919922,15.015624 15,15.005208 c 2.091797,0.01563 4.21875,-1.708333 5.408203,-2.479166 C 26.384765,8.6666667 28.11914,7.5104169 29.43164,6.6041667 Z M 15,13.333333 c 1.359375,0.02083 3.316406,-1.520833 4.300781,-2.15625 C 27.076172,6.1614582 27.667969,5.7239582 29.460937,4.4739582 29.800781,4.2395832 30,3.875 30,3.4895832 V 2.5 C 30,1.1197918 28.740235,0 27.1875,0 H 2.8125 C 1.2597656,0 0,1.1197918 0,2.5 V 3.4895832 C 0,3.875 0.19921875,4.2343751 0.5390625,4.4739582 2.3320312,5.7187498 2.9238281,6.1614582 10.699219,11.177083 11.683594,11.8125 13.640625,13.354167 15,13.333333 Z"
     id="path853"
     style="fill:#ffffff;stroke-width:0.0552427" />
</svg>
