<?xml version="1.0" encoding="UTF-8" standalone="no"?>
<svg
   xmlns:dc="http://purl.org/dc/elements/1.1/"
   xmlns:cc="http://creativecommons.org/ns#"
   xmlns:rdf="http://www.w3.org/1999/02/22-rdf-syntax-ns#"
   xmlns:svg="http://www.w3.org/2000/svg"
   xmlns="http://www.w3.org/2000/svg"
   xmlns:sodipodi="http://sodipodi.sourceforge.net/DTD/sodipodi-0.dtd"
   xmlns:inkscape="http://www.inkscape.org/namespaces/inkscape"
   viewBox="0 0 50 43"
   version="1.1"
   id="svg845"
   sodipodi:docname="envelope-open.svg"
   width="50"
   height="43"
   inkscape:version="1.0.2 (e86c8708, 2021-01-15)">
  <metadata
     id="metadata851">
    <rdf:RDF>
      <cc:Work
         rdf:about="">
        <dc:format>image/svg+xml</dc:format>
        <dc:type
           rdf:resource="http://purl.org/dc/dcmitype/StillImage" />
        <dc:title></dc:title>
      </cc:Work>
    </rdf:RDF>
  </metadata>
  <defs
     id="defs849" />
  <sodipodi:namedview
     pagecolor="#000000"
     bordercolor="#666666"
     borderopacity="1"
     objecttolerance="10"
     gridtolerance="10"
     guidetolerance="10"
     inkscape:pageopacity="0"
     inkscape:pageshadow="2"
     inkscape:window-width="1602"
     inkscape:window-height="480"
     id="namedview847"
     showgrid="false"
     fit-margin-top="0"
     fit-margin-left="0"
     fit-margin-right="0"
     fit-margin-bottom="0"
     inkscape:pagecheckerboard="true"
     inkscape:zoom="0.34565793"
     inkscape:cx="685.5793"
     inkscape:cy="315.54406"
     inkscape:window-x="0"
     inkscape:window-y="23"
     inkscape:window-maximized="0"
     inkscape:current-layer="svg845" />
  <!-- Font Awesome Free 5.15.3 by @fontawesome - https://fontawesome.com License - https://fontawesome.com/license/free (Icons: CC BY 4.0, Fonts: SIL OFL 1.1, Code: MIT License) -->
  <path
     d="M 50,38.968751 C 50,41.195176 47.901367,43 45.3125,43 H 4.6875 C 2.0986328,43 0,41.195176 0,38.968751 V 16.857687 A 4.6875,4.0312488 0 0 1 1.7956055,13.685094 C 4.2285156,12.044964 6.2390625,10.714988 17.830762,3.4800726 19.473828,2.4498366 22.734082,-0.02912952 25,2.6500009e-4 27.26543,-0.02946546 30.526953,2.4502565 32.169238,3.4799886 43.759766,10.714148 45.773047,12.045972 48.204395,13.685094 A 4.6875,4.0312488 0 0 1 50,16.857687 Z M 43.587305,22.457008 C 43.337012,22.143914 42.835352,22.0711 42.47998,22.29685 40.249023,23.713918 37.06377,25.715433 32.169238,28.770279 30.526172,29.800431 27.265918,32.279229 25,32.249751 22.733301,32.278642 19.47666,29.802195 17.830762,28.770279 12.936816,25.715769 9.7512695,23.714086 7.5200195,22.29685 7.1646484,22.0711 6.6629883,22.143914 6.4126953,22.457008 l -0.8859375,1.108257 a 0.78105469,0.67170683 0 0 0 0.1795899,0.921057 c 2.2350585,1.419251 5.4154293,3.417323 10.2834963,6.455709 1.979883,1.241372 5.519922,4.015543 9.010156,3.995387 3.488672,0.02032 7.027441,-2.752251 9.010059,-3.995387 4.868164,-3.03847 8.048632,-5.036542 10.283496,-6.455709 a 0.78105469,0.67170683 0 0 0 0.17959,-0.921057 z"
     id="path843"
     style="stroke-width:0.0905627;fill:#ffffff" />
</svg>
