<?xml version="1.0" encoding="UTF-8" standalone="no"?>
<svg
   xmlns:dc="http://purl.org/dc/elements/1.1/"
   xmlns:cc="http://creativecommons.org/ns#"
   xmlns:rdf="http://www.w3.org/1999/02/22-rdf-syntax-ns#"
   xmlns:svg="http://www.w3.org/2000/svg"
   xmlns="http://www.w3.org/2000/svg"
   xmlns:sodipodi="http://sodipodi.sourceforge.net/DTD/sodipodi-0.dtd"
   xmlns:inkscape="http://www.inkscape.org/namespaces/inkscape"
   version="1.1"
   id="Capa_1"
   x="0px"
   y="0px"
   width="50"
   height="50.000004"
   viewBox="0 0 49.999998 50.000001"
   xml:space="preserve"
   sodipodi:docname="graph.svg"
   inkscape:version="1.0.2 (e86c8708, 2021-01-15)"><metadata
   id="metadata1537"><rdf:RDF><cc:Work
       rdf:about=""><dc:format>image/svg+xml</dc:format><dc:type
         rdf:resource="http://purl.org/dc/dcmitype/StillImage" /><dc:title></dc:title></cc:Work></rdf:RDF></metadata><defs
   id="defs1535" /><sodipodi:namedview
   pagecolor="#ffffff"
   bordercolor="#666666"
   borderopacity="1"
   objecttolerance="10"
   gridtolerance="10"
   guidetolerance="10"
   inkscape:pageopacity="0"
   inkscape:pageshadow="2"
   inkscape:window-width="1920"
   inkscape:window-height="987"
   id="namedview1533"
   showgrid="false"
   inkscape:pagecheckerboard="true"
   fit-margin-top="0"
   fit-margin-left="0"
   fit-margin-right="0"
   fit-margin-bottom="0"
   inkscape:zoom="1.5378272"
   inkscape:cx="274.08801"
   inkscape:cy="219.26701"
   inkscape:window-x="0"
   inkscape:window-y="23"
   inkscape:window-maximized="1"
   inkscape:current-layer="Capa_1" />
<g
   id="g1500"
   style="fill:#ffffff"
   transform="matrix(0.09121158,0,0,0.11401625,0,-6.2504848)">
	<g
   id="g1498"
   style="fill:#ffffff">
		<path
   d="M 534.75,68.238 C 525.805,59.293 515.056,54.821 502.489,54.821 H 45.681 c -12.562,0 -23.313,4.471 -32.264,13.417 C 4.471,77.185 0,87.936 0,100.499 v 347.173 c 0,12.566 4.471,23.318 13.417,32.264 8.951,8.946 19.702,13.419 32.264,13.419 h 456.815 c 12.56,0 23.312,-4.473 32.258,-13.419 8.945,-8.945 13.422,-19.697 13.422,-32.264 V 100.499 c 0,-12.563 -4.477,-23.314 -13.426,-32.261 z m -23.123,379.434 c 0,2.478 -0.903,4.62 -2.711,6.427 -1.81,1.807 -3.952,2.71 -6.427,2.71 H 45.681 c -2.473,0 -4.615,-0.903 -6.423,-2.71 -1.807,-1.813 -2.712,-3.949 -2.712,-6.427 V 100.499 c 0,-2.474 0.902,-4.611 2.712,-6.423 1.809,-1.804 3.951,-2.708 6.423,-2.708 h 456.815 c 2.471,0 4.613,0.902 6.42,2.708 1.808,1.812 2.711,3.949 2.711,6.423 z"
   id="path1488"
   style="fill:#ffffff" />
		<rect
   x="73.092003"
   y="310.63501"
   width="73.088997"
   height="109.632"
   id="rect1490"
   style="fill:#ffffff" />
		<rect
   x="182.728"
   y="164.452"
   width="73.084999"
   height="255.814"
   id="rect1492"
   style="fill:#ffffff" />
		<rect
   x="292.362"
   y="237.541"
   width="73.083"
   height="182.726"
   id="rect1494"
   style="fill:#ffffff" />
		<rect
   x="401.99399"
   y="127.907"
   width="73.091003"
   height="292.35999"
   id="rect1496"
   style="fill:#ffffff" />
	</g>
</g>
<g
   id="g1502"
   transform="translate(0,-54.821)">
</g>
<g
   id="g1504"
   transform="translate(0,-54.821)">
</g>
<g
   id="g1506"
   transform="translate(0,-54.821)">
</g>
<g
   id="g1508"
   transform="translate(0,-54.821)">
</g>
<g
   id="g1510"
   transform="translate(0,-54.821)">
</g>
<g
   id="g1512"
   transform="translate(0,-54.821)">
</g>
<g
   id="g1514"
   transform="translate(0,-54.821)">
</g>
<g
   id="g1516"
   transform="translate(0,-54.821)">
</g>
<g
   id="g1518"
   transform="translate(0,-54.821)">
</g>
<g
   id="g1520"
   transform="translate(0,-54.821)">
</g>
<g
   id="g1522"
   transform="translate(0,-54.821)">
</g>
<g
   id="g1524"
   transform="translate(0,-54.821)">
</g>
<g
   id="g1526"
   transform="translate(0,-54.821)">
</g>
<g
   id="g1528"
   transform="translate(0,-54.821)">
</g>
<g
   id="g1530"
   transform="translate(0,-54.821)">
</g>
</svg>
