<?xml version="1.0" encoding="UTF-8" standalone="no"?>
<svg
   xmlns:dc="http://purl.org/dc/elements/1.1/"
   xmlns:cc="http://creativecommons.org/ns#"
   xmlns:rdf="http://www.w3.org/1999/02/22-rdf-syntax-ns#"
   xmlns:svg="http://www.w3.org/2000/svg"
   xmlns="http://www.w3.org/2000/svg"
   xmlns:sodipodi="http://sodipodi.sourceforge.net/DTD/sodipodi-0.dtd"
   xmlns:inkscape="http://www.inkscape.org/namespaces/inkscape"
   viewBox="0 0 10 10"
   version="1.1"
   id="svg835"
   sodipodi:docname="question-circle.svg"
   width="10"
   height="10"
   inkscape:version="1.0.2 (e86c8708, 2021-01-15)">
  <metadata
     id="metadata841">
    <rdf:RDF>
      <cc:Work
         rdf:about="">
        <dc:format>image/svg+xml</dc:format>
        <dc:type
           rdf:resource="http://purl.org/dc/dcmitype/StillImage" />
        <dc:title></dc:title>
      </cc:Work>
    </rdf:RDF>
  </metadata>
  <defs
     id="defs839" />
  <sodipodi:namedview
     pagecolor="#000000"
     bordercolor="#666666"
     borderopacity="1"
     objecttolerance="10"
     gridtolerance="10"
     guidetolerance="10"
     inkscape:pageopacity="0"
     inkscape:pageshadow="2"
     inkscape:window-width="1920"
     inkscape:window-height="987"
     id="namedview837"
     showgrid="false"
     inkscape:pagecheckerboard="true"
     fit-margin-top="0"
     fit-margin-left="0"
     fit-margin-right="0"
     fit-margin-bottom="0"
     inkscape:zoom="1.3046875"
     inkscape:cx="248"
     inkscape:cy="248"
     inkscape:window-x="0"
     inkscape:window-y="23"
     inkscape:window-maximized="1"
     inkscape:current-layer="svg835" />
  <!-- Font Awesome Free 5.15.3 by @fontawesome - https://fontawesome.com License - https://fontawesome.com/license/free (Icons: CC BY 4.0, Fonts: SIL OFL 1.1, Code: MIT License) -->
  <path
     d="M 10,5 C 10,7.762036 7.76123,10 5,10 2.23877,10 0,7.762036 0,5 0,2.239577 2.23877,0 5,0 7.76123,0 10,2.239577 10,5 Z M 5.134173,1.6532258 c -1.098729,0 -1.799496,0.4628432 -2.349778,1.2854432 -0.07129,0.106573 -0.04744,0.250303 0.05474,0.327783 L 3.538712,3.796895 C 3.643651,3.876475 3.793167,3.857545 3.8747,3.754115 4.234861,3.2973 4.481817,3.032401 5.030002,3.032401 c 0.411875,0 0.921331,0.265081 0.921331,0.664476 0,0.301935 -0.249254,0.456996 -0.655928,0.685 C 4.821131,4.647742 4.19355,4.978649 4.19355,5.806452 v 0.08065 c 0,0.133609 0.108327,0.241935 0.241936,0.241935 h 1.129032 c 0.133609,0 0.241936,-0.108326 0.241936,-0.241935 v -0.02688 c 0,-0.573831 1.677137,-0.597722 1.677137,-2.150545 0,-1.169395 -1.213004,-2.0564512 -2.349416,-2.0564512 z M 5,6.653226 c -0.511391,0 -0.927419,0.416028 -0.927419,0.927419 0,0.511371 0.416028,0.92742 0.927419,0.92742 0.511391,0 0.927419,-0.416049 0.927419,-0.92742 C 5.927419,7.069254 5.511391,6.653226 5,6.653226 Z"
     id="path833"
     style="fill:#ffffff;stroke-width:0.0201612" />
</svg>
