<?xml version="1.0" encoding="UTF-8" standalone="no"?>
<svg
   xmlns:dc="http://purl.org/dc/elements/1.1/"
   xmlns:cc="http://creativecommons.org/ns#"
   xmlns:rdf="http://www.w3.org/1999/02/22-rdf-syntax-ns#"
   xmlns:svg="http://www.w3.org/2000/svg"
   xmlns="http://www.w3.org/2000/svg"
   xmlns:sodipodi="http://sodipodi.sourceforge.net/DTD/sodipodi-0.dtd"
   xmlns:inkscape="http://www.inkscape.org/namespaces/inkscape"
   version="1.1"
   id="Capa_1"
   x="0px"
   y="0px"
   width="29"
   height="29.000002"
   viewBox="0 0 29 29.000001"
   xml:space="preserve"
   sodipodi:docname="slow.svg"
   inkscape:version="1.0.2 (e86c8708, 2021-01-15)"><metadata
   id="metadata872"><rdf:RDF><cc:Work
       rdf:about=""><dc:format>image/svg+xml</dc:format><dc:type
         rdf:resource="http://purl.org/dc/dcmitype/StillImage" /><dc:title></dc:title></cc:Work></rdf:RDF></metadata><defs
   id="defs870" /><sodipodi:namedview
   pagecolor="#ffffff"
   bordercolor="#666666"
   borderopacity="1"
   objecttolerance="10"
   gridtolerance="10"
   guidetolerance="10"
   inkscape:pageopacity="0"
   inkscape:pageshadow="2"
   inkscape:window-width="1920"
   inkscape:window-height="987"
   id="namedview868"
   showgrid="false"
   fit-margin-top="0"
   fit-margin-left="0"
   fit-margin-right="0"
   fit-margin-bottom="0"
   inkscape:pagecheckerboard="true"
   inkscape:zoom="2.284862"
   inkscape:cx="82.227504"
   inkscape:cy="146.1795"
   inkscape:window-x="0"
   inkscape:window-y="23"
   inkscape:window-maximized="1"
   inkscape:current-layer="Capa_1" />
<g
   id="g835"
   transform="matrix(0.09729105,0,0,0.09919312,-0.2219572,0)"
   style="fill:#ffffff">
	<path
   d="M 222.979,133.331 95.073,5.424 C 91.456,1.807 87.178,0 82.226,0 77.274,0 72.993,1.807 69.376,5.424 65.759,9.041 63.952,13.322 63.952,18.271 v 255.813 c 0,4.948 1.807,9.232 5.424,12.847 3.621,3.617 7.902,5.428 12.85,5.428 4.949,0 9.23,-1.811 12.847,-5.428 L 222.979,159.024 c 3.614,-3.613 5.428,-7.897 5.428,-12.847 0,-4.948 -1.813,-9.229 -5.428,-12.846 z"
   id="path833"
   style="fill:#ffffff" />
</g>
<g
   id="g837"
   transform="translate(-63.952)">
</g>
<g
   id="g839"
   transform="translate(-63.952)">
</g>
<g
   id="g841"
   transform="translate(-63.952)">
</g>
<g
   id="g843"
   transform="translate(-63.952)">
</g>
<g
   id="g845"
   transform="translate(-63.952)">
</g>
<g
   id="g847"
   transform="translate(-63.952)">
</g>
<g
   id="g849"
   transform="translate(-63.952)">
</g>
<g
   id="g851"
   transform="translate(-63.952)">
</g>
<g
   id="g853"
   transform="translate(-63.952)">
</g>
<g
   id="g855"
   transform="translate(-63.952)">
</g>
<g
   id="g857"
   transform="translate(-63.952)">
</g>
<g
   id="g859"
   transform="translate(-63.952)">
</g>
<g
   id="g861"
   transform="translate(-63.952)">
</g>
<g
   id="g863"
   transform="translate(-63.952)">
</g>
<g
   id="g865"
   transform="translate(-63.952)">
</g>
</svg>
