<?xml version="1.0" encoding="UTF-8" standalone="no"?>
<svg
   xmlns:dc="http://purl.org/dc/elements/1.1/"
   xmlns:cc="http://creativecommons.org/ns#"
   xmlns:rdf="http://www.w3.org/1999/02/22-rdf-syntax-ns#"
   xmlns:svg="http://www.w3.org/2000/svg"
   xmlns="http://www.w3.org/2000/svg"
   xmlns:sodipodi="http://sodipodi.sourceforge.net/DTD/sodipodi-0.dtd"
   xmlns:inkscape="http://www.inkscape.org/namespaces/inkscape"
   viewBox="0 0 10 10"
   version="1.1"
   id="svg4306"
   sodipodi:docname="calendar.svg"
   width="10"
   height="10"
   inkscape:version="1.0.2 (e86c8708, 2021-01-15)">
  <metadata
     id="metadata4312">
    <rdf:RDF>
      <cc:Work
         rdf:about="">
        <dc:format>image/svg+xml</dc:format>
        <dc:type
           rdf:resource="http://purl.org/dc/dcmitype/StillImage" />
        <dc:title></dc:title>
      </cc:Work>
    </rdf:RDF>
  </metadata>
  <defs
     id="defs4310" />
  <sodipodi:namedview
     pagecolor="#000000"
     bordercolor="#666666"
     borderopacity="1"
     objecttolerance="10"
     gridtolerance="10"
     guidetolerance="10"
     inkscape:pageopacity="0"
     inkscape:pageshadow="2"
     inkscape:window-width="1920"
     inkscape:window-height="987"
     id="namedview4308"
     showgrid="false"
     inkscape:pagecheckerboard="true"
     fit-margin-top="0"
     fit-margin-left="0"
     fit-margin-right="0"
     fit-margin-bottom="0"
     inkscape:zoom="1.6464844"
     inkscape:cx="152.9395"
     inkscape:cy="150.92764"
     inkscape:window-x="0"
     inkscape:window-y="23"
     inkscape:window-maximized="1"
     inkscape:current-layer="svg4306" />
  <!-- Font Awesome Free 5.15.3 by @fontawesome - https://fontawesome.com License - https://fontawesome.com/license/free (Icons: CC BY 4.0, Fonts: SIL OFL 1.1, Code: MIT License) -->
  <path
     d="M 0.26785714,3.75 H 9.7321429 C 9.8794643,3.75 10,3.8554687 10,3.984375 V 9.0625 C 10,9.580078 9.5200893,10 8.9285714,10 H 1.0714286 C 0.47991071,10 0,9.580078 0,9.0625 V 3.984375 C 0,3.8554687 0.12053571,3.75 0.26785714,3.75 Z M 10,2.890625 V 2.1875 C 10,1.6699219 9.5200893,1.25 8.9285714,1.25 H 7.8571429 V 0.234375 C 7.8571429,0.10546875 7.7366071,0 7.5892857,0 H 6.6964286 C 6.5491071,0 6.4285714,0.10546875 6.4285714,0.234375 V 1.25 H 3.5714286 V 0.234375 C 3.5714286,0.10546875 3.4508929,0 3.3035714,0 H 2.4107143 C 2.2633929,0 2.1428571,0.10546875 2.1428571,0.234375 V 1.25 H 1.0714286 C 0.47991071,1.25 0,1.6699219 0,2.1875 V 2.890625 C 0,3.0195313 0.12053571,3.125 0.26785714,3.125 H 9.7321429 C 9.8794643,3.125 10,3.0195313 10,2.890625 Z"
     id="path4304"
     style="fill:#ffffff;stroke-width:0.0208799" />
</svg>
