<?xml version="1.0" encoding="UTF-8" standalone="no"?>
<svg
   xmlns:dc="http://purl.org/dc/elements/1.1/"
   xmlns:cc="http://creativecommons.org/ns#"
   xmlns:rdf="http://www.w3.org/1999/02/22-rdf-syntax-ns#"
   xmlns:svg="http://www.w3.org/2000/svg"
   xmlns="http://www.w3.org/2000/svg"
   xmlns:sodipodi="http://sodipodi.sourceforge.net/DTD/sodipodi-0.dtd"
   xmlns:inkscape="http://www.inkscape.org/namespaces/inkscape"
   viewBox="0 0 30 25"
   version="1.1"
   id="svg835"
   sodipodi:docname="city.svg"
   inkscape:version="1.0.2 (e86c8708, 2021-01-15)"
   width="30"
   height="25">
  <metadata
     id="metadata841">
    <rdf:RDF>
      <cc:Work
         rdf:about="">
        <dc:format>image/svg+xml</dc:format>
        <dc:type
           rdf:resource="http://purl.org/dc/dcmitype/StillImage" />
        <dc:title></dc:title>
      </cc:Work>
    </rdf:RDF>
  </metadata>
  <defs
     id="defs839" />
  <sodipodi:namedview
     pagecolor="#000000"
     bordercolor="#666666"
     borderopacity="1"
     objecttolerance="10"
     gridtolerance="10"
     guidetolerance="10"
     inkscape:pageopacity="0"
     inkscape:pageshadow="2"
     inkscape:window-width="1920"
     inkscape:window-height="987"
     id="namedview837"
     showgrid="false"
     inkscape:pagecheckerboard="true"
     inkscape:zoom="2.7921184"
     inkscape:cx="63.227887"
     inkscape:cy="-28.060804"
     inkscape:window-x="102"
     inkscape:window-y="262"
     inkscape:window-maximized="0"
     inkscape:current-layer="svg835"
     fit-margin-top="0"
     fit-margin-left="0"
     fit-margin-right="0"
     fit-margin-bottom="0" />
  <!-- Font Awesome Free 5.15.3 by @fontawesome - https://fontawesome.com License - https://fontawesome.com/license/free (Icons: CC BY 4.0, Fonts: SIL OFL 1.1, Code: MIT License) -->
  <path
     d="M 28.875,9.375 H 22.5 V 1.171875 C 22.5,0.52441408 21.996563,0 21.375,0 h -6.75 C 14.003437,0 13.5,0.52441408 13.5,1.171875 V 4.6875 h -3 V 0.78125 C 10.5,0.34960937 10.164375,0 9.75,0 H 9 C 8.585625,0 8.25,0.34960937 8.25,0.78125 V 4.6875 h -3 V 0.78125 C 5.25,0.34960937 4.914375,0 4.5,0 H 3.75 C 3.335625,0 3,0.34960937 3,0.78125 V 4.6875 H 1.125 C 0.5034375,4.6875 0,5.2119143 0,5.859375 V 23.4375 C 0,24.300293 0.67171878,25 1.5,25 h 27 C 29.328281,25 30,24.300293 30,23.4375 V 10.546875 C 30,9.8994143 29.496094,9.375 28.875,9.375 Z M 6,19.726562 C 6,20.050293 5.7482813,20.3125 5.4375,20.3125 H 3.5625 C 3.2517188,20.3125 3,20.050293 3,19.726562 V 17.773437 C 3,17.449707 3.2517188,17.1875 3.5625,17.1875 h 1.875 C 5.7482813,17.1875 6,17.449707 6,17.773437 Z m 0,-4.6875 C 6,15.362793 5.7482813,15.625 5.4375,15.625 H 3.5625 C 3.2517188,15.625 3,15.362793 3,15.039062 V 13.085937 C 3,12.762207 3.2517188,12.5 3.5625,12.5 h 1.875 C 5.7482813,12.5 6,12.762207 6,13.085937 Z m 0,-4.6875 C 6,10.675293 5.7482813,10.9375 5.4375,10.9375 H 3.5625 C 3.2517188,10.9375 3,10.675293 3,10.351562 V 8.3984372 C 3,8.0747071 3.2517188,7.8125 3.5625,7.8125 h 1.875 C 5.7482813,7.8125 6,8.0747071 6,8.3984372 Z m 6,9.375 C 12,20.050293 11.748281,20.3125 11.4375,20.3125 H 9.5625 C 9.2517186,20.3125 9,20.050293 9,19.726562 V 17.773437 C 9,17.449707 9.2517186,17.1875 9.5625,17.1875 h 1.875 c 0.310781,0 0.5625,0.262207 0.5625,0.585937 z m 0,-4.6875 C 12,15.362793 11.748281,15.625 11.4375,15.625 H 9.5625 C 9.2517186,15.625 9,15.362793 9,15.039062 V 13.085937 C 9,12.762207 9.2517186,12.5 9.5625,12.5 h 1.875 C 11.748281,12.5 12,12.762207 12,13.085937 Z m 0,-4.6875 C 12,10.675293 11.748281,10.9375 11.4375,10.9375 H 9.5625 C 9.2517186,10.9375 9,10.675293 9,10.351562 V 8.3984372 C 9,8.0747071 9.2517186,7.8125 9.5625,7.8125 h 1.875 C 11.748281,7.8125 12,8.0747071 12,8.3984372 Z m 7.5,4.6875 c 0,0.323731 -0.251719,0.585938 -0.5625,0.585938 h -1.875 C 16.751719,15.625 16.5,15.362793 16.5,15.039062 V 13.085937 C 16.5,12.762207 16.751719,12.5 17.0625,12.5 h 1.875 c 0.310781,0 0.5625,0.262207 0.5625,0.585937 z m 0,-4.6875 c 0,0.323731 -0.251719,0.585938 -0.5625,0.585938 h -1.875 C 16.751719,10.9375 16.5,10.675293 16.5,10.351562 V 8.3984372 C 16.5,8.0747071 16.751719,7.8125 17.0625,7.8125 h 1.875 c 0.310781,0 0.5625,0.2622071 0.5625,0.5859372 z m 0,-4.6874992 C 19.5,5.9877929 19.248281,6.25 18.9375,6.25 h -1.875 C 16.751719,6.25 16.5,5.9877929 16.5,5.6640628 V 3.7109375 C 16.5,3.387207 16.751719,3.125 17.0625,3.125 h 1.875 c 0.310781,0 0.5625,0.262207 0.5625,0.5859375 z M 27,19.726562 c 0,0.323731 -0.251719,0.585938 -0.5625,0.585938 h -1.875 C 24.251719,20.3125 24,20.050293 24,19.726562 v -1.953125 c 0,-0.32373 0.251719,-0.585937 0.5625,-0.585937 h 1.875 c 0.310781,0 0.5625,0.262207 0.5625,0.585937 z m 0,-4.6875 C 27,15.362793 26.748281,15.625 26.4375,15.625 h -1.875 C 24.251719,15.625 24,15.362793 24,15.039062 V 13.085937 C 24,12.762207 24.251719,12.5 24.5625,12.5 h 1.875 C 26.748281,12.5 27,12.762207 27,13.085937 Z"
     id="path833"
     style="fill:#ffffff;stroke-width:0.0478417" />
</svg>
