<?xml version="1.0" encoding="UTF-8" standalone="no"?>
<svg
   xmlns:dc="http://purl.org/dc/elements/1.1/"
   xmlns:cc="http://creativecommons.org/ns#"
   xmlns:rdf="http://www.w3.org/1999/02/22-rdf-syntax-ns#"
   xmlns:svg="http://www.w3.org/2000/svg"
   xmlns="http://www.w3.org/2000/svg"
   xmlns:sodipodi="http://sodipodi.sourceforge.net/DTD/sodipodi-0.dtd"
   xmlns:inkscape="http://www.inkscape.org/namespaces/inkscape"
   width="30"
   height="26.786816"
   viewBox="0 0 30 26.786816"
   version="1.1"
   id="svg3140"
   sodipodi:docname="cogs.svg"
   inkscape:version="1.0.2 (e86c8708, 2021-01-15)">
  <metadata
     id="metadata3146">
    <rdf:RDF>
      <cc:Work
         rdf:about="">
        <dc:format>image/svg+xml</dc:format>
        <dc:type
           rdf:resource="http://purl.org/dc/dcmitype/StillImage" />
        <dc:title></dc:title>
      </cc:Work>
    </rdf:RDF>
  </metadata>
  <defs
     id="defs3144" />
  <sodipodi:namedview
     pagecolor="#000000"
     bordercolor="#666666"
     borderopacity="1"
     objecttolerance="10"
     gridtolerance="10"
     guidetolerance="10"
     inkscape:pageopacity="0"
     inkscape:pageshadow="2"
     inkscape:window-width="1920"
     inkscape:window-height="987"
     id="namedview3142"
     showgrid="false"
     fit-margin-top="0"
     fit-margin-left="0"
     fit-margin-right="0"
     fit-margin-bottom="0"
     inkscape:pagecheckerboard="true"
     inkscape:zoom="3.4167919"
     inkscape:cx="45.310982"
     inkscape:cy="22.458876"
     inkscape:window-x="244"
     inkscape:window-y="235"
     inkscape:window-maximized="0"
     inkscape:current-layer="svg3140" />
  <path
     d="M 14,13.385802 Q 14,11.773422 12.828125,10.632586 11.65625,9.4917512 10,9.4917512 q -1.65625,0 -2.828125,1.1408348 Q 6,11.773422 6,13.385802 6,14.998184 7.171875,16.139018 8.34375,17.279855 10,17.279855 q 1.65625,0 2.828125,-1.140837 Q 14,14.998184 14,13.385802 Z m 12,7.788104 Q 26,20.382926 25.40625,19.804903 24.8125,19.22688 24,19.22688 q -0.8125,0 -1.40625,0.578023 Q 22,20.382926 22,21.173906 q 0,0.806191 0.585937,1.376608 0.585938,0.570418 1.414063,0.570418 0.828125,0 1.414062,-0.570418 Q 26,21.980097 26,21.173906 Z M 26,5.5976989 Q 26,4.80672 25.40625,4.2286964 24.8125,3.6506734 24,3.6506734 q -0.8125,0 -1.40625,0.578023 Q 22,4.80672 22,5.5976989 22,6.4038893 22.585937,6.9743075 23.171875,7.5447247 24,7.5447247 q 0.828125,0 1.414062,-0.5704172 Q 26,6.4038893 26,5.5976989 Z M 20,12.00159 v 2.81406 q 0,0.152111 -0.109375,0.296618 -0.109375,0.144505 -0.25,0.159716 l -2.421875,0.365067 q -0.171875,0.532391 -0.5,1.156048 0.53125,0.730133 1.40625,1.749281 0.109375,0.167321 0.109375,0.304222 0,0.182533 -0.109375,0.289011 -0.359375,0.456334 -1.289063,1.361397 -0.929687,0.905062 -1.226562,0.905062 -0.171875,0 -0.328125,-0.106483 l -1.796875,-1.369001 q -0.578125,0.289011 -1.203125,0.471545 -0.171875,1.642803 -0.359375,2.357727 -0.109375,0.365067 -0.46875,0.365067 h -2.90625 q -0.171875,0 -0.3125,-0.114084 Q 8.09375,22.892764 8.078125,22.740652 L 7.71875,20.413349 Q 7.1875,20.261237 6.546875,19.941803 l -1.84375,1.353792 q -0.109375,0.106483 -0.3125,0.106483 -0.171875,0 -0.328125,-0.121689 -2.25,-2.023083 -2.25,-2.433783 0,-0.1369 0.109375,-0.28901 Q 2.078125,18.344634 2.5625,17.751399 3.046875,17.158166 3.296875,16.82352 2.9375,16.15423 2.75,15.576207 L 0.375,15.211139 Q 0.21875,15.195927 0.109375,15.066632 0,14.937338 0,14.770016 v -2.814062 q 0,-0.152111 0.109375,-0.296616 0.109375,-0.144505 0.25,-0.159716 L 2.78125,11.134554 q 0.171875,-0.53239 0.5,-1.1560471 Q 2.75,9.2483724 1.875,8.229226 1.765625,8.0619041 1.765625,7.9250035 q 0,-0.182533 0.109375,-0.304223 0.34375,-0.4563341 1.28125,-1.3537915 0.9375,-0.8974565 1.234375,-0.8974565 0.171875,0 0.328125,0.1064776 L 6.515625,6.8450129 Q 7.046875,6.5712122 7.71875,6.3582563 7.890625,4.715453 8.078125,4.0157412 8.1875,3.6506734 8.546875,3.6506734 h 2.90625 q 0.171875,0 0.3125,0.1140833 0.140625,0.1140841 0.15625,0.2661947 l 0.359375,2.3273049 q 0.53125,0.1521116 1.171875,0.4715451 l 1.84375,-1.3537913 q 0.125,-0.1064776 0.3125,-0.1064776 0.171875,0 0.328125,0.1216888 2.25,2.0230816 2.25,2.4337822 0,0.1216896 -0.109375,0.2890122 -0.1875,0.2433773 -0.65625,0.8214006 -0.46875,0.5780238 -0.703125,0.9126688 0.359375,0.7301349 0.53125,1.2473139 l 2.375,0.349856 q 0.15625,0.03042 0.265625,0.159717 Q 20,11.834266 20,12.00159 Z m 10,8.107536 v 2.12956 q 0,0.243377 -2.328125,0.471546 -0.1875,0.4107 -0.46875,0.790978 Q 28,25.22007 28,25.600348 q 0,0.06084 -0.0625,0.106477 -1.90625,1.079991 -1.9375,1.079991 -0.125,0 -0.71875,-0.714923 -0.59375,-0.714924 -0.8125,-1.034358 -0.3125,0.03042 -0.46875,0.03042 -0.15625,0 -0.46875,-0.03042 -0.21875,0.319434 -0.8125,1.034358 Q 22.125,26.786816 22,26.786816 q -0.03125,0 -1.9375,-1.079991 Q 20,25.661192 20,25.600348 20,25.22007 20.796875,23.50121 20.515625,23.120932 20.328125,22.710232 18,22.482063 18,22.238686 v -2.12956 q 0,-0.243379 2.328125,-0.471545 0.203125,-0.441124 0.46875,-0.790979 Q 20,17.127743 20,16.747465 q 0,-0.06085 0.0625,-0.106483 0.0625,-0.03042 0.546875,-0.304223 0.484375,-0.273802 0.921875,-0.517179 0.4375,-0.243379 0.46875,-0.243379 0.125,0 0.71875,0.707318 0.59375,0.707317 0.8125,1.026753 0.3125,-0.03042 0.46875,-0.03042 0.15625,0 0.46875,0.03042 0.796875,-1.079991 1.4375,-1.70365 L 26,15.576207 q 0.0625,0 1.9375,1.06478 Q 28,16.686623 28,16.747465 q 0,0.380278 -0.796875,2.099137 0.265625,0.349855 0.46875,0.790979 Q 30,19.865747 30,20.109126 Z M 30,4.5329196 v 2.1295599 q 0,0.2433777 -2.328125,0.4715451 -0.1875,0.4107001 -0.46875,0.7909789 Q 28,9.6438619 28,10.024141 q 0,0.06084 -0.0625,0.106478 -1.90625,1.07999 -1.9375,1.07999 -0.125,0 -0.71875,-0.714923 Q 24.6875,9.7807622 24.46875,9.4613285 24.15625,9.4917494 24,9.4917494 q -0.15625,0 -0.46875,-0.030421 Q 23.3125,9.7807622 22.71875,10.495686 22.125,11.210609 22,11.210609 q -0.03125,0 -1.9375,-1.07999 Q 20,10.084985 20,10.024141 20,9.6438619 20.796875,7.9250035 20.515625,7.5447247 20.328125,7.1340246 18,6.9058572 18,6.6624795 V 4.5329196 Q 18,4.2895416 20.328125,4.0613742 20.53125,3.6202506 20.796875,3.2703953 20,1.5515362 20,1.1712579 20,1.1104163 20.0625,1.0647795 20.125,1.0343586 20.609375,0.76055717 21.09375,0.48675663 21.53125,0.24337788 21.96875,0 22,0 22.125,0 22.71875,0.70731837 23.3125,1.4146359 23.53125,1.7340696 23.84375,1.7036487 24,1.7036487 q 0.15625,0 0.46875,0.030421 0.796875,-1.07999085 1.4375,-1.70364687 L 26,0 Q 26.0625,0 27.9375,1.0647795 28,1.1104136 28,1.1712579 28,1.5515362 27.203125,3.2703953 27.46875,3.6202506 27.671875,4.0613742 30,4.2895416 30,4.5329196 Z"
     id="path3138"
     style="fill:#ffffff;stroke-width:0.0154166" />
</svg>
