<?xml version="1.0" encoding="UTF-8" standalone="no"?>
<svg
   xmlns:dc="http://purl.org/dc/elements/1.1/"
   xmlns:cc="http://creativecommons.org/ns#"
   xmlns:rdf="http://www.w3.org/1999/02/22-rdf-syntax-ns#"
   xmlns:svg="http://www.w3.org/2000/svg"
   xmlns="http://www.w3.org/2000/svg"
   xmlns:sodipodi="http://sodipodi.sourceforge.net/DTD/sodipodi-0.dtd"
   xmlns:inkscape="http://www.inkscape.org/namespaces/inkscape"
   viewBox="0 0 50 45"
   version="1.1"
   id="svg2585"
   sodipodi:docname="comments.svg"
   width="50"
   height="45"
   inkscape:version="1.0.2 (e86c8708, 2021-01-15)">
  <metadata
     id="metadata2591">
    <rdf:RDF>
      <cc:Work
         rdf:about="">
        <dc:format>image/svg+xml</dc:format>
        <dc:type
           rdf:resource="http://purl.org/dc/dcmitype/StillImage" />
        <dc:title></dc:title>
      </cc:Work>
    </rdf:RDF>
  </metadata>
  <defs
     id="defs2589" />
  <sodipodi:namedview
     pagecolor="#000000"
     bordercolor="#666666"
     borderopacity="1"
     objecttolerance="10"
     gridtolerance="10"
     guidetolerance="10"
     inkscape:pageopacity="0"
     inkscape:pageshadow="2"
     inkscape:window-width="1920"
     inkscape:window-height="987"
     id="namedview2587"
     showgrid="false"
     fit-margin-top="0"
     fit-margin-left="0"
     fit-margin-right="0"
     fit-margin-bottom="0"
     inkscape:pagecheckerboard="true"
     inkscape:zoom="1.6464844"
     inkscape:cx="182.32028"
     inkscape:cy="132.8968"
     inkscape:window-x="0"
     inkscape:window-y="23"
     inkscape:window-maximized="1"
     inkscape:current-layer="svg2585" />
  <!-- Font Awesome Free 5.15.3 by @fontawesome - https://fontawesome.com License - https://fontawesome.com/license/free (Icons: CC BY 4.0, Fonts: SIL OFL 1.1, Code: MIT License) -->
  <path
     d="M 36.111111,16.071429 C 36.111111,7.1919645 28.029514,0 18.055556,0 8.081597,0 0,7.1919645 0,16.071429 0,19.516742 1.2239583,22.690849 3.2986111,25.3125 2.1354167,28.345982 0.21701389,30.756696 0.19097222,30.78683 0,31.017857 -0.05208333,31.359375 0.06076389,31.660714 c 0.11284722,0.30134 0.35590278,0.482143 0.63368056,0.482143 3.17708335,0 5.80729155,-1.23549 7.69965225,-2.511161 2.7951393,1.577009 6.1024313,2.511161 9.6614593,2.511161 9.973958,0 18.055555,-7.191964 18.055555,-16.071428 z M 46.701389,38.169645 C 48.776042,35.558036 50,32.373883 50,28.928571 50,22.208705 45.355903,16.453125 38.776042,14.052455 c 0.07813,0.662946 0.112847,1.335938 0.112847,2.018974 0,10.637276 -9.348958,19.285716 -20.833333,19.285716 -0.9375,0 -1.848959,-0.08037 -2.751737,-0.19085 C 18.038194,40.941964 24.461806,45 31.944444,45 c 3.559028,0 6.86632,-0.924105 9.661459,-2.511161 C 43.498264,43.76451 46.128472,45 49.305556,45 c 0.277777,0 0.529513,-0.19085 0.63368,-0.482145 0.112849,-0.291289 0.06076,-0.63281 -0.130208,-0.87388 -0.02604,-0.03015 -1.944445,-2.430805 -3.107639,-5.47433 z"
     id="path2583"
     style="fill:#ffffff;stroke-width:0.0933777" />
</svg>
