<?xml version="1.0" encoding="UTF-8" standalone="no"?>
<svg
   xmlns:dc="http://purl.org/dc/elements/1.1/"
   xmlns:cc="http://creativecommons.org/ns#"
   xmlns:rdf="http://www.w3.org/1999/02/22-rdf-syntax-ns#"
   xmlns:svg="http://www.w3.org/2000/svg"
   xmlns="http://www.w3.org/2000/svg"
   xmlns:sodipodi="http://sodipodi.sourceforge.net/DTD/sodipodi-0.dtd"
   xmlns:inkscape="http://www.inkscape.org/namespaces/inkscape"
   version="1.1"
   id="Capa_1"
   x="0px"
   y="0px"
   width="35"
   height="29.000002"
   viewBox="0 0 35 29.000002"
   xml:space="preserve"
   sodipodi:docname="fast.svg"
   inkscape:version="1.0.2 (e86c8708, 2021-01-15)"><metadata
   id="metadata913"><rdf:RDF><cc:Work
       rdf:about=""><dc:format>image/svg+xml</dc:format><dc:type
         rdf:resource="http://purl.org/dc/dcmitype/StillImage" /><dc:title></dc:title></cc:Work></rdf:RDF></metadata><defs
   id="defs911" /><sodipodi:namedview
   pagecolor="#ffffff"
   bordercolor="#666666"
   borderopacity="1"
   objecttolerance="10"
   gridtolerance="10"
   guidetolerance="10"
   inkscape:pageopacity="0"
   inkscape:pageshadow="2"
   inkscape:window-width="1920"
   inkscape:window-height="987"
   id="namedview909"
   showgrid="false"
   fit-margin-top="0"
   fit-margin-left="0"
   fit-margin-right="0"
   fit-margin-bottom="0"
   inkscape:pagecheckerboard="true"
   inkscape:zoom="3.1362275"
   inkscape:cx="81.722891"
   inkscape:cy="68.215874"
   inkscape:window-x="13"
   inkscape:window-y="23"
   inkscape:window-maximized="0"
   inkscape:current-layer="Capa_1"
   inkscape:document-rotation="0"
   inkscape:lockguides="true" />
<g
   id="g876"
   transform="matrix(0.05863601,0,0,0.06600513,2,-2.3851522)"
   style="fill:#ffffff">
	<path
   d="m 506.203,41.968 c -3.617,-3.617 -7.902,-5.426 -12.851,-5.426 H 456.81 c -4.948,0 -9.232,1.809 -12.847,5.426 -3.62,3.619 -5.427,7.902 -5.427,12.851 v 193.572 c -0.955,-2.091 -2.19,-3.899 -3.717,-5.424 L 232.11,40.257 c -3.616,-3.615 -6.658,-4.853 -9.136,-3.709 -2.474,1.141 -3.711,4.187 -3.711,9.135 v 202.708 c -0.95,-2.091 -2.187,-3.899 -3.709,-5.424 L 12.847,40.257 C 9.23,36.642 6.186,35.404 3.712,36.548 1.237,37.689 0,40.735 0,45.683 v 420.262 c 0,4.948 1.241,7.998 3.715,9.141 2.474,1.14 5.518,-0.099 9.135,-3.72 L 215.557,268.658 c 1.52,-1.708 2.76,-3.519 3.709,-5.421 v 202.708 c 0,4.948 1.237,7.994 3.711,9.134 2.474,1.14 5.52,-0.1 9.136,-3.717 L 434.822,268.654 c 1.523,-1.711 2.762,-3.524 3.714,-5.428 v 193.571 c 0,4.948 1.81,9.229 5.427,12.847 3.614,3.617 7.898,5.425 12.847,5.425 h 36.546 c 4.944,0 9.232,-1.808 12.85,-5.425 3.614,-3.617 5.425,-7.898 5.425,-12.847 V 54.819 c -0.005,-4.956 -1.811,-9.235 -5.428,-12.851 z"
   id="path874"
   style="fill:#ffffff" />
</g>
<g
   id="g878"
   transform="translate(0,-36.13586)">
</g>
<g
   id="g880"
   transform="translate(0,-36.13586)">
</g>
<g
   id="g882"
   transform="translate(0,-36.13586)">
</g>
<g
   id="g884"
   transform="translate(0,-36.13586)">
</g>
<g
   id="g886"
   transform="translate(0,-36.13586)">
</g>
<g
   id="g888"
   transform="translate(0,-36.13586)">
</g>
<g
   id="g890"
   transform="translate(0,-36.13586)">
</g>
<g
   id="g892"
   transform="translate(0,-36.13586)">
</g>
<g
   id="g894"
   transform="translate(0,-36.13586)">
</g>
<g
   id="g896"
   transform="translate(0,-36.13586)">
</g>
<g
   id="g898"
   transform="translate(0,-36.13586)">
</g>
<g
   id="g900"
   transform="translate(0,-36.13586)">
</g>
<g
   id="g902"
   transform="translate(0,-36.13586)">
</g>
<g
   id="g904"
   transform="translate(0,-36.13586)">
</g>
<g
   id="g906"
   transform="translate(0,-36.13586)">
</g>
</svg>
