<?xml version="1.0" encoding="UTF-8" standalone="no"?>
<svg
   xmlns:dc="http://purl.org/dc/elements/1.1/"
   xmlns:cc="http://creativecommons.org/ns#"
   xmlns:rdf="http://www.w3.org/1999/02/22-rdf-syntax-ns#"
   xmlns:svg="http://www.w3.org/2000/svg"
   xmlns="http://www.w3.org/2000/svg"
   xmlns:sodipodi="http://sodipodi.sourceforge.net/DTD/sodipodi-0.dtd"
   xmlns:inkscape="http://www.inkscape.org/namespaces/inkscape"
   width="30"
   height="30"
   viewBox="0 0 30 30"
   version="1.1"
   id="svg1427"
   sodipodi:docname="pie-chart.svg"
   inkscape:version="1.0.2 (e86c8708, 2021-01-15)">
  <metadata
     id="metadata1433">
    <rdf:RDF>
      <cc:Work
         rdf:about="">
        <dc:format>image/svg+xml</dc:format>
        <dc:type
           rdf:resource="http://purl.org/dc/dcmitype/StillImage" />
        <dc:title></dc:title>
      </cc:Work>
    </rdf:RDF>
  </metadata>
  <defs
     id="defs1431" />
  <sodipodi:namedview
     pagecolor="#000000"
     bordercolor="#666666"
     borderopacity="1"
     objecttolerance="10"
     gridtolerance="10"
     guidetolerance="10"
     inkscape:pageopacity="1"
     inkscape:pageshadow="2"
     inkscape:window-width="1920"
     inkscape:window-height="987"
     id="namedview1429"
     showgrid="false"
     inkscape:pagecheckerboard="true"
     inkscape:zoom="1.011726"
     inkscape:cx="397.24182"
     inkscape:cy="-6.4062496"
     inkscape:window-x="36"
     inkscape:window-y="280"
     inkscape:window-maximized="0"
     inkscape:current-layer="svg1427"
     fit-margin-top="0"
     fit-margin-left="0"
     fit-margin-right="0"
     fit-margin-bottom="0"
     inkscape:document-rotation="0" />
  <path
     d="m 13.333333,16.045674 9.479167,9.84375 Q 20.972222,27.836538 18.515625,28.91827 16.059028,30 13.333333,30 9.7048614,30 6.6406248,28.143029 3.5763889,26.286058 1.7881945,23.103966 0,19.921874 0,16.153847 0,12.385817 1.7881945,9.2037257 3.5763889,6.0216347 6.6406248,4.1646635 9.7048614,2.3076924 13.333333,2.3076924 Z m 3.246528,0.10818 H 30 q 0,2.830529 -1.041667,5.38161 -1.041666,2.551081 -2.916666,4.46214 z m 12.309028,-2.3077 H 15.555556 V 0 q 3.628472,0 6.692708,1.8569712 3.064236,1.8569712 4.85243,5.0390627 1.788195,3.1820911 1.788195,6.9501201 z"
     id="path1425"
     style="fill:#ffffff;stroke-width:0.0176918" />
</svg>
