<?xml version="1.0" encoding="UTF-8" standalone="no"?>
<svg
   xmlns:dc="http://purl.org/dc/elements/1.1/"
   xmlns:cc="http://creativecommons.org/ns#"
   xmlns:rdf="http://www.w3.org/1999/02/22-rdf-syntax-ns#"
   xmlns:svg="http://www.w3.org/2000/svg"
   xmlns="http://www.w3.org/2000/svg"
   xmlns:sodipodi="http://sodipodi.sourceforge.net/DTD/sodipodi-0.dtd"
   xmlns:inkscape="http://www.inkscape.org/namespaces/inkscape"
   viewBox="0 0 10 10"
   version="1.1"
   id="svg835"
   sodipodi:docname="thumbs-up.svg"
   width="10"
   height="10"
   inkscape:version="1.0.2 (e86c8708, 2021-01-15)">
  <metadata
     id="metadata841">
    <rdf:RDF>
      <cc:Work
         rdf:about="">
        <dc:format>image/svg+xml</dc:format>
        <dc:type
           rdf:resource="http://purl.org/dc/dcmitype/StillImage" />
        <dc:title></dc:title>
      </cc:Work>
    </rdf:RDF>
  </metadata>
  <defs
     id="defs839" />
  <sodipodi:namedview
     pagecolor="#000000"
     bordercolor="#666666"
     borderopacity="1"
     objecttolerance="10"
     gridtolerance="10"
     guidetolerance="10"
     inkscape:pageopacity="0"
     inkscape:pageshadow="2"
     inkscape:window-width="1920"
     inkscape:window-height="987"
     id="namedview837"
     showgrid="false"
     fit-margin-top="0"
     fit-margin-left="0"
     fit-margin-right="0"
     fit-margin-bottom="0"
     inkscape:pagecheckerboard="true"
     inkscape:zoom="1.3046875"
     inkscape:cx="256"
     inkscape:cy="256"
     inkscape:window-x="0"
     inkscape:window-y="23"
     inkscape:window-maximized="1"
     inkscape:current-layer="svg835" />
  <!-- Font Awesome Free 5.15.3 by @fontawesome - https://fontawesome.com License - https://fontawesome.com/license/free (Icons: CC BY 4.0, Fonts: SIL OFL 1.1, Code: MIT License) -->
  <path
     d="M 2.0312512,4.375 H 0.46875029 C 0.20986341,4.375 0,4.5848633 0,4.84375 v 4.6875 C 0,9.7901367 0.20986341,10 0.46875029,10 H 2.0312512 C 2.2901381,10 2.5000015,9.7901367 2.5000015,9.53125 V 4.84375 C 2.5000015,4.5848633 2.2901381,4.375 2.0312512,4.375 Z M 1.2500008,9.21875 c -0.25888691,0 -0.46875032,-0.2098633 -0.46875032,-0.46875 0,-0.2588867 0.20986341,-0.46875 0.46875032,-0.46875 0.2588868,0 0.4687503,0.2098633 0.4687503,0.46875 0,0.2588867 -0.2098635,0.46875 -0.4687503,0.46875 z M 7.5000046,1.5908594 c 0,0.8284375 -0.5072269,1.293125 -0.6499418,1.8466406 h 1.9867785 c 0.6522856,0 1.1600984,0.5419141 1.1631453,1.1347266 0.00164,0.3503515 -0.1473829,0.7275195 -0.3796682,0.9608789 l -0.00215,0.00215 C 9.8102794,5.9910563 9.779049,6.6297282 9.436373,7.0873844 9.6059238,7.5931461 9.4350253,8.2144157 9.1164118,8.5474821 9.2003572,8.891193 9.16024,9.1837125 8.9963336,9.4192008 8.5977006,9.9919336 7.6096922,10 6.7742034,10 l -0.055567,-1.95e-5 C 5.7755309,9.9996484 5.0036749,9.6562695 4.3834792,9.3803516 4.0718189,9.2416992 3.6643186,9.0700586 3.3551388,9.064375 3.2274043,9.0620313 3.1250019,8.957793 3.1250019,8.8300391 V 4.6548438 c 0,-0.0625 0.025039,-0.1224805 0.069492,-0.1664258 C 3.9682056,3.7238867 4.3009011,2.9144531 4.9350616,2.2792188 5.2242024,1.9895313 5.3293587,1.5519531 5.4310189,1.1287891 5.5178745,0.76744141 5.6995543,0 6.0937537,0 6.562504,0 7.5000046,0.15625 7.5000046,1.5908594 Z"
     id="path833"
     style="fill:#ffffff;stroke-width:0.0195312" />
</svg>
