<?xml version="1.0" encoding="UTF-8" standalone="no"?>
<svg
   xmlns:dc="http://purl.org/dc/elements/1.1/"
   xmlns:cc="http://creativecommons.org/ns#"
   xmlns:rdf="http://www.w3.org/1999/02/22-rdf-syntax-ns#"
   xmlns:svg="http://www.w3.org/2000/svg"
   xmlns="http://www.w3.org/2000/svg"
   xmlns:sodipodi="http://sodipodi.sourceforge.net/DTD/sodipodi-0.dtd"
   xmlns:inkscape="http://www.inkscape.org/namespaces/inkscape"
   viewBox="0 0 10 10"
   version="1.1"
   id="svg845"
   sodipodi:docname="thumbs-down.svg"
   width="10"
   height="10"
   inkscape:version="1.0.2 (e86c8708, 2021-01-15)">
  <metadata
     id="metadata851">
    <rdf:RDF>
      <cc:Work
         rdf:about="">
        <dc:format>image/svg+xml</dc:format>
        <dc:type
           rdf:resource="http://purl.org/dc/dcmitype/StillImage" />
        <dc:title></dc:title>
      </cc:Work>
    </rdf:RDF>
  </metadata>
  <defs
     id="defs849" />
  <sodipodi:namedview
     pagecolor="#000000"
     bordercolor="#666666"
     borderopacity="1"
     objecttolerance="10"
     gridtolerance="10"
     guidetolerance="10"
     inkscape:pageopacity="0"
     inkscape:pageshadow="2"
     inkscape:window-width="1920"
     inkscape:window-height="987"
     id="namedview847"
     showgrid="false"
     inkscape:pagecheckerboard="true"
     fit-margin-top="0"
     fit-margin-left="0"
     fit-margin-right="0"
     fit-margin-bottom="0"
     inkscape:zoom="1.6464844"
     inkscape:cx="235.9573"
     inkscape:cy="115.70107"
     inkscape:window-x="0"
     inkscape:window-y="23"
     inkscape:window-maximized="1"
     inkscape:current-layer="svg845" />
  <!-- Font Awesome Free 5.15.3 by @fontawesome - https://fontawesome.com License - https://fontawesome.com/license/free (Icons: CC BY 4.0, Fonts: SIL OFL 1.1, Code: MIT License) -->
  <path
     d="m 0,1.09375 v 4.6875 C 0,6.0401367 0.209863,6.25 0.46874937,6.25 H 2.0312473 c 0.2588863,0 0.4687493,-0.2098633 0.4687493,-0.46875 V 1.09375 C 2.4999966,0.83486328 2.2901336,0.625 2.0312473,0.625 H 0.46874937 C 0.209863,0.625 0,0.83486328 0,1.09375 Z M 0.78124895,5 c 0,-0.2588867 0.209863,-0.46875 0.46874935,-0.46875 0.2588864,0 0.4687494,0.2098633 0.4687494,0.46875 0,0.2588867 -0.209863,0.46875 -0.4687494,0.46875 C 0.99111195,5.46875 0.78124895,5.2588867 0.78124895,5 Z M 6.0937418,10 C 5.6995431,10 5.5178637,9.2325586 5.4310279,8.8711914 5.3293483,8.4480273 5.2242117,8.0104492 4.9350715,7.7207617 4.3009122,7.0855273 3.9682173,6.2760937 3.1945074,5.5115625 A 0.23398406,0.23398438 0 0 1 3.1250154,5.3451367 V 1.1699414 c 0,-0.1277539 0.1024022,-0.23199218 0.2301365,-0.23433593 C 3.6643506,0.92994141 4.0718305,0.75828125 4.3834902,0.61962891 5.0036847,0.34371094 5.7755587,3.3203125e-4 6.7186433,0 h 0.055547 C 7.6096775,0 8.597684,0.00806641 8.9963358,0.58080078 9.1602418,0.81628906 9.200359,1.1088086 9.1164138,1.4525195 9.4350071,1.7855859 9.6059248,2.406875 9.4363743,2.9126172 9.7790301,3.3702734 9.8102605,4.0089453 9.6181709,4.4647461 l 0.00215,0.00215 C 9.852604,4.7002734 10.001627,5.0774219 9.9999866,5.4277734 9.9969397,6.0205859 9.4891084,6.5625 8.8368436,6.5625 H 6.8500494 C 6.9927641,7.1160156 7.4999899,7.5807031 7.4999899,8.4091406 7.4999899,9.84375 6.5624912,10 6.0937418,10 Z"
     id="path843"
     style="fill:#ffffff;stroke-width:0.0195312" />
</svg>
